<?xml version="1.0" encoding="UTF-8"?>
<svg width="32" height="32" viewBox="0 0 32 32" fill="none" xmlns="http://www.w3.org/2000/svg">
  <circle cx="16" cy="16" r="16" fill="#1868db"/>
  <rect x="6" y="8" width="6" height="16" rx="1.5" fill="white" opacity="0.9"/>
  <rect x="7" y="10" width="4" height="1.5" rx="0.75" fill="#1868db"/>
  <rect x="7" y="12.5" width="4" height="1.5" rx="0.75" fill="#1868db"/>
  <rect x="7" y="15" width="4" height="1.5" rx="0.75" fill="#1868db"/>
  <rect x="13" y="6" width="6" height="18" rx="1.5" fill="white" opacity="0.9"/>
  <rect x="14" y="8" width="4" height="1.5" rx="0.75" fill="#1868db"/>
  <rect x="14" y="10.5" width="4" height="1.5" rx="0.75" fill="#1868db"/>
  <rect x="14" y="13" width="4" height="1.5" rx="0.75" fill="#1868db"/>
  <rect x="14" y="15.5" width="4" height="1.5" rx="0.75" fill="#1868db"/>
  <rect x="20" y="10" width="6" height="14" rx="1.5" fill="white" opacity="0.9"/>
  <rect x="21" y="12" width="4" height="1.5" rx="0.75" fill="#1868db"/>
  <rect x="21" y="14.5" width="4" height="1.5" rx="0.75" fill="#1868db"/>
  <rect x="21" y="17" width="4" height="1.5" rx="0.75" fill="#1868db"/>
</svg>
